<svg width="48" height="48" viewBox="0 0 48 48" fill="none" xmlns="http://www.w3.org/2000/svg">
<path d="M0 7.5C0 3.35786 3.35786 0 7.5 0H40.5C44.6421 0 48 3.35786 48 7.5V40.5C48 44.6421 44.6421 48 40.5 48H7.5C3.35786 48 0 44.6421 0 40.5V7.5Z" fill="#DC0C1C"/>
<path fill-rule="evenodd" clip-rule="evenodd" d="M39.0451 16.4503H34.2584C31.9287 13.3599 28.2038 11.3573 24.0107 11.3573C16.9592 11.3573 11.2347 17.0192 11.2347 23.9924C11.2347 30.9661 16.9592 36.6276 24.0107 36.6276C28.2038 36.6276 31.9287 34.6249 34.2584 31.5351H39.0451C36.2596 36.9504 30.5701 40.6639 24.0107 40.6639C14.7069 40.6639 7.15381 33.194 7.15381 23.9924C7.15381 14.7914 14.7069 7.32146 24.0107 7.32146C30.5701 7.32146 36.2596 11.035 39.0451 16.4503ZM28.0222 24.7369C27.6684 26.6097 26.0057 28.0288 24.0107 28.0288C21.7578 28.0288 19.9292 26.2203 19.9292 23.9924C19.9292 21.7651 21.7578 19.9566 24.0107 19.9566C26.0057 19.9566 27.6684 21.3756 28.0222 23.2485H48.0002V24.7369H28.0222Z" fill="white"/>
</svg>
